<svg
  width="40"
  height="40"
  viewBox="0 0 40 40"
  fill="none"
  xmlns="http://www.w3.org/2000/svg"
>
  <g clip-path="url(#clip0_7_18)">
    <path
      fill-rule="evenodd"
      clip-rule="evenodd"
      d="M38.175 0.506682C38.3353 0.655895 38.4646 0.835239 38.5556 1.03446C38.6465 1.23368 38.6973 1.44888 38.7051 1.66775C38.7128 1.88661 38.6773 2.10486 38.6007 2.31001C38.524 2.51516 38.4077 2.70319 38.2583 2.86335L24.6983 17.405L39.665 37.2717C39.8511 37.5192 39.9646 37.8136 39.9927 38.122C40.0208 38.4304 39.9625 38.7405 39.8242 39.0176C39.6859 39.2947 39.4732 39.5277 39.2098 39.6907C38.9465 39.8536 38.643 39.9399 38.3333 39.94H29.2033C28.9452 39.9401 28.6905 39.8803 28.4594 39.7652C28.2283 39.6501 28.0271 39.4828 27.8717 39.2767L17.3383 25.2983L4.18166 39.41C4.03239 39.5701 3.85305 39.6993 3.65388 39.7901C3.4547 39.8808 3.23959 39.9315 3.02083 39.9392C2.80207 39.9468 2.58395 39.9113 2.37891 39.8347C2.17387 39.7581 1.98593 39.6418 1.82583 39.4925C1.66573 39.3432 1.53659 39.1639 1.4458 38.9647C1.355 38.7656 1.30433 38.5504 1.29667 38.3317C1.28901 38.1129 1.32451 37.8948 1.40115 37.6898C1.47779 37.4847 1.59406 37.2968 1.74333 37.1367L15.3033 22.595L0.336662 2.72835C0.15064 2.48097 0.0371812 2.18667 0.00899898 1.87843C-0.0191832 1.5702 0.0390246 1.26021 0.1771 0.983189C0.315176 0.706173 0.527664 0.473079 0.790754 0.310025C1.05384 0.146972 1.35714 0.0604019 1.66666 0.0600155H10.7983C11.0562 0.0601435 11.3106 0.120119 11.5414 0.235223C11.7721 0.350327 11.9731 0.517419 12.1283 0.723349L22.6617 14.7017L35.8167 0.590016C35.9659 0.429711 36.1452 0.300385 36.3444 0.209431C36.5437 0.118478 36.7589 0.0676792 36.9777 0.05994C37.1966 0.0522007 37.4148 0.0876724 37.62 0.164327C37.8251 0.240982 38.0132 0.357317 38.1733 0.506682H38.175ZM21.2583 18.38C21.2113 18.3257 21.1679 18.2683 21.1283 18.2084L9.96666 3.39168H5.00833L30.0333 36.6084H34.9917L21.2583 18.38Z"
      fill="#D5D5D5"></path>
  </g>
  <defs>
    <clipPath id="clip0_7_18">
      <rect width="40" height="40" fill="white"></rect>
    </clipPath>
  </defs>
</svg>